<svg xmlns="http://www.w3.org/2000/svg" xmlns:xlink="http://www.w3.org/1999/xlink" width="25" height="625" version="1.1" viewBox="0 0 25 625"><title>Circle Overlay</title><desc>Created with Sketch.</desc><g id="Page-1" fill="none" fill-rule="evenodd" stroke="none" stroke-width="1"><g id="OpenJ9-Home-Blank" fill-rule="nonzero" transform="translate(-1286.000000, -2511.000000)"><rect id="Gray-BG" width="1440" height="1242" x="0" y="1431" fill="#5DA7A3"/><g id="Participate" transform="translate(-87.000000, 2512.000000)"><rect id="Blue-BG" width="1440" height="365" x="87" y="156" fill="#343434"/><g id="Group-10" fill="#5DA7A3" transform="translate(87.000000, 0.000000)"><rect id="Rectangle-2" width="1440" height="565" x="0" y="155"/></g><g id="Circle-Overlays" stroke="#FFF" opacity=".75" transform="translate(78.000000, 0.000000)"><g id="Circle-Overlay" transform="translate(743.500000, 311.500000) rotate(90.000000) translate(-743.500000, -311.500000) translate(432.000000, -432.000000)"><g id="Group-12"><g id="Circle-Overlay"><g id="Stacked-Group-8" opacity=".5" transform="translate(0.000000, 168.000000)"><circle id="Oval-16" cx="611.5" cy="11.5" r="11.5"/><circle id="Oval-16" cx="587.5" cy="11.5" r="11.5"/><circle id="Oval-16" cx="563.5" cy="11.5" r="11.5"/><circle id="Oval-16" cx="515.5" cy="11.5" r="11.5"/><circle id="Oval-16" cx="539.5" cy="11.5" r="11.5"/><circle id="Oval-16" cx="467.5" cy="11.5" r="11.5"/><circle id="Oval-16" cx="491.5" cy="11.5" r="11.5"/><circle id="Oval-16" cx="419.5" cy="11.5" r="11.5"/><circle id="Oval-16" cx="443.5" cy="11.5" r="11.5"/><circle id="Oval-16" cx="371.5" cy="11.5" r="11.5"/><circle id="Oval-16" cx="395.5" cy="11.5" r="11.5"/><circle id="Oval-16" cx="323.5" cy="11.5" r="11.5"/><circle id="Oval-16" cx="347.5" cy="11.5" r="11.5"/><circle id="Oval-16" cx="275.5" cy="11.5" r="11.5"/><circle id="Oval-16" cx="299.5" cy="11.5" r="11.5"/><circle id="Oval-16" cx="227.5" cy="11.5" r="11.5"/><circle id="Oval-16" cx="251.5" cy="11.5" r="11.5"/><circle id="Oval-16" cx="179.5" cy="11.5" r="11.5"/><circle id="Oval-16" cx="203.5" cy="11.5" r="11.5"/><circle id="Oval-16" cx="131.5" cy="11.5" r="11.5"/><circle id="Oval-16" cx="155.5" cy="11.5" r="11.5"/><circle id="Oval-16" cx="83.5" cy="11.5" r="11.5"/><circle id="Oval-16" cx="107.5" cy="11.5" r="11.5"/><circle id="Oval-16" cx="35.5" cy="11.5" r="11.5"/><circle id="Oval-16" cx="59.5" cy="11.5" r="11.5"/><circle id="Oval-16" cx="11.5" cy="11.5" r="11.5"/></g></g></g></g></g><rect id="Rectangle-22" width="793" height="2" x="734" y="520" fill="#5DA7A3"/></g></g></g></svg>