<svg xmlns="http://www.w3.org/2000/svg" width="25" height="25"><g><title>background</title><rect id="canvas_background" width="26" height="26" x="-1" y="-1" fill="none"/><g id="canvasGrid" width="100%" height="100%" x="0" y="0" display="none"><rect width="22" height="22" x="1" y="1" fill="url(#gridpattern)" stroke-width="0"/></g></g><g><title>Layer 1</title><ellipse id="svg_1" cx="12" cy="12" fill="#FFF" stroke="#FFF" rx="11" ry="11"/><style transform="matrix(0.06518249557325362,0,0,0.06518249557325362,0,0)" type="text/css">.st0{fill:#434343}</style><g id="svg_19" stroke="null"><g id="svg_6" stroke="null" transform="matrix(0.13015580851809486,0,0,0.13015580851809486,-6.849006450405499,-6.831507391021924)"><g id="svg_7" stroke="null"><path id="svg_8" stroke="null" d="m110.298292,161.293011c0,7.1 -5.8,12.9 -12.9,12.9s-12.9,-5.8 -12.9,-12.9c0,-7.1 5.8,-12.9 12.9,-12.9l12.9,0l0,12.9z" class="st0"/><path id="svg_9" stroke="null" d="m116.798292,161.293011c0,-7.1 5.8,-12.9 12.9,-12.9s12.9,5.8 12.9,12.9l0,32.3c0,7.1 -5.8,12.9 -12.9,12.9s-12.9,-5.8 -12.9,-12.9c0,0 0,-32.3 0,-32.3z" class="st0"/></g><g id="svg_10" stroke="null"><path id="svg_11" stroke="null" d="m129.698292,109.493011c-7.1,0 -12.9,-5.8 -12.9,-12.9s5.8,-12.9 12.9,-12.9s12.9,5.8 12.9,12.9l0,12.9l-12.9,0z" class="st0"/><path id="svg_12" stroke="null" d="m129.698292,115.993011c7.1,0 12.9,5.8 12.9,12.9s-5.8,12.9 -12.9,12.9l-32.3,0c-7.1,0 -12.9,-5.8 -12.9,-12.9s5.8,-12.9 12.9,-12.9c0,0 32.3,0 32.3,0z" class="st0"/></g><g id="svg_13" stroke="null"><path id="svg_14" stroke="null" d="m181.498292,128.893011c0,-7.1 5.8,-12.9 12.9,-12.9c7.1,0 12.9,5.8 12.9,12.9s-5.8,12.9 -12.9,12.9l-12.9,0l0,-12.9z" class="st0"/><path id="svg_15" stroke="null" d="m174.998292,128.893011c0,7.1 -5.8,12.9 -12.9,12.9c-7.1,0 -12.9,-5.8 -12.9,-12.9l0,-32.3c0,-7.1 5.8,-12.9 12.9,-12.9c7.1,0 12.9,5.8 12.9,12.9l0,32.3z" class="st0"/></g><g id="svg_16" stroke="null"><path id="svg_17" stroke="null" d="m162.098292,180.693011c7.1,0 12.9,5.8 12.9,12.9c0,7.1 -5.8,12.9 -12.9,12.9c-7.1,0 -12.9,-5.8 -12.9,-12.9l0,-12.9l12.9,0z" class="st0"/><path id="svg_18" stroke="null" d="m162.098292,174.193011c-7.1,0 -12.9,-5.8 -12.9,-12.9c0,-7.1 5.8,-12.9 12.9,-12.9l32.3,0c7.1,0 12.9,5.8 12.9,12.9c0,7.1 -5.8,12.9 -12.9,12.9l-32.3,0z" class="st0"/></g></g></g></g></svg>